<svg xmlns="http://www.w3.org/2000/svg" version="1.1" xmlns:xlink="http://www.w3.org/1999/xlink" xmlns:svgjs="http://svgjs.dev/svgjs" viewBox="0 0 1920 1080" class="overflow-hidden rounded-md drop-shadow-lg transition duration-300" style="overflow: hidden; height: 85vh;"><rect width="1920" height="1080" fill="#0d0047"/><g clip-path="url(&quot;#SvgjsClipPath1347&quot;)"><g transform="matrix(-0.35536954353118944,1.0937149937394266,-1.0937149937394266,-0.35536954353118944,1867.167646399473,-298.22135638779287)"><path d="M0,-1080C3.503250779307263,-1005.9636762708813,16.396951102156432,-790.4791303075766,21.019504675843578,-635.7820576252875C25.642058249530724,-481.0849849429984,32.180031347756746,-314.712688355428,27.73532144212288,-151.81756390626515C23.290611536489017,11.077560542897658,-3.915083549060017,182.0440595865979,-5.648754757959608,341.58868906968934C-7.382425966859199,501.1333185527808,22.43409760267049,655.3839031716009,17.333294188725333,805.4502129922835C12.232490774780175,955.5165228129661,-37.83018401226203,1099.9515916801747,-36.25357524163056,1241.9865479937848C-34.67696647099908,1384.021504307395,20.750684272242427,1504.6577088729089,26.792946812514188,1657.6599508739448C32.835209352785945,1810.6621928749807,4.465491135419032,2076.2766584789906,0,2160L 1920 2160 L 1920 -1080 Z" fill="url(&quot;#SvgjsLinearGradient1344&quot;)"/><path d="M640,-1080C642.0967097457099,-949.8009108541477,656.5404672608076,-566.3104479349926,652.5802584742595,-298.8054651248863C648.6200496877113,-31.300482314780083,618.526082186311,243.87832236541612,616.2387472807108,525.0298968606375C613.9514123751105,806.1814713558588,634.8960402541097,1115.6089646565479,638.8562490406579,1388.1039818464417C642.816457827206,1660.5989990363355,639.8093748401096,2031.3506636410737,640,2160L 1920 2160 L 1920 -1080 Z" fill="url(&quot;#SvgjsLinearGradient1345&quot;)"/><path d="M1280,-1080C1276.2222473315503,-967.3018092783423,1264.4565503575034,-612.5757966046291,1257.3334839893016,-403.81085567005385C1250.2104176210999,-195.0459147354786,1237.8430348673223,-42.56044503124798,1237.2616017907899,172.58964560745156C1236.6801687142574,387.7397362461511,1247.0589549405936,658.6161952538702,1253.8448855301071,887.0896881621433C1260.6308161196207,1115.5631810704162,1273.6179995828898,1331.2788844174474,1277.977185327872,1543.4306030570901C1282.336371072854,1755.5823216967328,1279.662864221312,2057.2384338428483,1280,2160L 1920 2160 L 1920 -1080 Z" fill="url(&quot;#SvgjsLinearGradient1346&quot;)"/></g></g><defs><linearGradient x1="0.1" y1="0" x2="0" y2="1" id="SvgjsLinearGradient1344"><stop stop-color="#0d0047" offset="0"/><stop stop-color="#010047" offset="0"/></linearGradient><linearGradient x1="0.1" y1="0" x2="0" y2="1" id="SvgjsLinearGradient1345"><stop stop-color="#0c003f" offset="0"/><stop stop-color="#01003f" offset="0.3333333333333333"/></linearGradient><linearGradient x1="0.1" y1="0" x2="0" y2="1" id="SvgjsLinearGradient1346"><stop stop-color="#0a0037" offset="0"/><stop stop-color="#010037" offset="0.6666666666666666"/></linearGradient><clipPath id="SvgjsClipPath1347"><rect width="1920" height="1080"/></clipPath></defs></svg>